<svg xmlns="http://www.w3.org/2000/svg" xmlns:xlink="http://www.w3.org/1999/xlink" width="58.07" height="58.07" viewBox="0 0 58.07 58.07">
  <defs>
    <filter id="Path_94" x="0" y="0" width="58.07" height="58.07" filterUnits="userSpaceOnUse">
      <feOffset dy="3" input="SourceAlpha"/>
      <feGaussianBlur stdDeviation="3" result="blur"/>
      <feFlood flood-opacity="0.259"/>
      <feComposite operator="in" in2="blur"/>
      <feComposite in="SourceGraphic"/>
    </filter>
  </defs>
  <g id="Group_193" data-name="Group 193" transform="translate(-150.42 -1002)">
    <g transform="matrix(1, 0, 0, 1, 150.42, 1002)" filter="url(#Path_94)">
      <g id="Path_94-2" data-name="Path 94" transform="translate(9 6)" fill="purple">
        <path d="M 20.03501129150391 38.57002258300781 C 15.08413124084473 38.57002258300781 10.42958164215088 36.64204025268555 6.928781509399414 33.14124298095703 C 3.427981376647949 29.64044189453125 1.500001311302185 24.98589134216309 1.500001311302185 20.03501129150391 C 1.500001311302185 15.08413124084473 3.427981376647949 10.42958164215088 6.928781509399414 6.928781509399414 C 10.42958164215088 3.427981376647949 15.08413124084473 1.500001311302185 20.03501129150391 1.500001311302185 C 24.98589134216309 1.500001311302185 29.64044189453125 3.427981376647949 33.14124298095703 6.928781509399414 C 36.64204025268555 10.42958164215088 38.57002258300781 15.08413124084473 38.57002258300781 20.03501129150391 C 38.57002258300781 24.98589134216309 36.64204025268555 29.64044189453125 33.14124298095703 33.14124298095703 C 29.64044189453125 36.64204025268555 24.98589134216309 38.57002258300781 20.03501129150391 38.57002258300781 Z" stroke="none"/>
        <path d="M 20.03501129150391 3 C 15.48479080200195 3 11.20693206787109 4.771949768066406 7.98944091796875 7.98944091796875 C 4.771949768066406 11.20693206787109 3 15.48479080200195 3 20.03501129150391 C 3 24.58523178100586 4.771949768066406 28.86309051513672 7.98944091796875 32.08058166503906 C 11.20693206787109 35.29807281494141 15.48479080200195 37.07002258300781 20.03501129150391 37.07002258300781 C 24.58523178100586 37.07002258300781 28.86309051513672 35.29807281494141 32.08058166503906 32.08058166503906 C 35.29807281494141 28.86309051513672 37.07002258300781 24.58523178100586 37.07002258300781 20.03501129150391 C 37.07002258300781 15.48479080200195 35.29807281494141 11.20693206787109 32.08058166503906 7.98944091796875 C 28.86309051513672 4.771949768066406 24.58523178100586 3 20.03501129150391 3 M 20.03501129150391 0 C 31.10004043579102 0 40.07002258300781 8.969982147216797 40.07002258300781 20.03501129150391 C 40.07002258300781 31.10004043579102 31.10004043579102 40.07002258300781 20.03501129150391 40.07002258300781 C 8.969982147216797 40.07002258300781 0 31.10004043579102 0 20.03501129150391 C 0 8.969982147216797 8.969982147216797 0 20.03501129150391 0 Z" stroke="none" fill="#fff"/>
      </g>
    </g>
    <g id="Icon_Cart" transform="translate(168.955 1019)">
      <g id="Group_183" data-name="Group 183">
        <path id="Path_2" data-name="Path 2" d="M19.065,3.96h-7.3a1.111,1.111,0,0,0-1.1,1.276,1.1,1.1,0,0,0,1.1.924h7.26a.628.628,0,0,1,.484.22.591.591,0,0,1,.132.528l-1.672,8.008a.617.617,0,0,1-.616.528H10.265a.617.617,0,0,1-.616-.528L7.229.88A1.045,1.045,0,0,0,6.173,0H1.113A1.091,1.091,0,0,0,.057,1.364a1.088,1.088,0,0,0,1.1.836H5.249L7.493,15.268A2.791,2.791,0,0,0,10.265,17.6h7.128a2.791,2.791,0,0,0,2.772-2.332L21.837,7.26A2.831,2.831,0,0,0,19.065,3.96Z" transform="translate(-0.022)" fill="#fff"/>
        <path id="Path_3" data-name="Path 3" d="M30.52,20.2a1.1,1.1,0,1,0,0-2.2H27a1.1,1.1,0,0,0,0,2.2Z" transform="translate(-14.514 -10.08)" fill="#fff"/>
      </g>
      <g id="Group_184" data-name="Group 184" transform="translate(9.186 11.44)">
        <circle id="Ellipse_15" data-name="Ellipse 15" cx="1.54" cy="1.54" r="1.54" transform="translate(0 7.48)" fill="#fff"/>
        <circle id="Ellipse_16" data-name="Ellipse 16" cx="1.54" cy="1.54" r="1.54" transform="translate(6.16 7.48)" fill="#fff"/>
        <path id="Path_4" data-name="Path 4" d="M31.3,27.1A1.089,1.089,0,0,0,30.2,26H28a1.1,1.1,0,1,0,0,2.2h2.2A1.089,1.089,0,0,0,31.3,27.1Z" transform="translate(-24.26 -26)" fill="#fff"/>
      </g>
    </g>
  </g>
</svg>
