<svg xmlns="http://www.w3.org/2000/svg" width="20.06" height="17.615" viewBox="0 0 20.06 17.615">
  <g id="noun_filters_1245150" transform="translate(-16 -20.1)">
    <g id="Group_43" data-name="Group 43" transform="translate(16 20.1)">
      <path id="Path_38" data-name="Path 38" d="M21.891,20.1a2.624,2.624,0,0,0-2.5,1.885H16.707a.705.705,0,0,0-.707.736.729.729,0,0,0,.736.736h2.681a2.6,2.6,0,0,0,2.5,1.885,2.633,2.633,0,0,0,2.533-1.885H35.323a.736.736,0,1,0,0-1.473H24.454A2.7,2.7,0,0,0,21.891,20.1Zm.029,1.473a1.149,1.149,0,1,1-1.149,1.149A1.15,1.15,0,0,1,21.921,21.573Z" transform="translate(-16 -20.1)" fill="#434b56"/>
    </g>
    <g id="Group_44" data-name="Group 44" transform="translate(16 25.991)">
      <path id="Path_39" data-name="Path 39" d="M30.758,40.1a2.624,2.624,0,0,0-2.5,1.885H16.736a.712.712,0,0,0-.736.736.729.729,0,0,0,.736.736H28.254a2.6,2.6,0,0,0,2.5,1.885,2.633,2.633,0,0,0,2.533-1.885h2.032a.736.736,0,1,0,0-1.473H33.291A2.633,2.633,0,0,0,30.758,40.1Zm.029,1.473a1.149,1.149,0,1,1-1.149,1.149A1.132,1.132,0,0,1,30.787,41.573Z" transform="translate(-16 -40.1)" fill="#434b56"/>
    </g>
    <g id="Group_45" data-name="Group 45" transform="translate(16 32.472)">
      <path id="Path_40" data-name="Path 40" d="M25.426,62.1a2.624,2.624,0,0,0-2.5,1.885H16.736a.712.712,0,0,0-.736.736.729.729,0,0,0,.736.736h6.215a2.6,2.6,0,0,0,2.5,1.885,2.633,2.633,0,0,0,2.533-1.885h7.335a.736.736,0,1,0,0-1.473H27.959A2.633,2.633,0,0,0,25.426,62.1Zm.029,1.473a1.149,1.149,0,1,1-1.149,1.149A1.169,1.169,0,0,1,25.455,63.573Z" transform="translate(-16 -62.1)" fill="#434b56"/>
    </g>
  </g>
</svg>
