<svg xmlns="http://www.w3.org/2000/svg" width="15.429" height="13.5" viewBox="0 0 15.429 13.5">
  <path id="Icon_awesome-gift" data-name="Icon awesome-gift" d="M.964,14.786a.963.963,0,0,0,.964.964H6.75V10.929H.964Zm7.714.964H13.5a.963.963,0,0,0,.964-.964V10.929H8.679Zm5.786-9.643H13.2A2.628,2.628,0,0,0,13.5,4.9,2.656,2.656,0,0,0,10.848,2.25c-1.254,0-2.064.642-3.1,2.058C6.7,2.892,5.894,2.25,4.641,2.25A2.656,2.656,0,0,0,1.989,4.9a2.591,2.591,0,0,0,.3,1.205H.964A.963.963,0,0,0,0,7.071V9.482a.484.484,0,0,0,.482.482H14.946a.484.484,0,0,0,.482-.482V7.071A.963.963,0,0,0,14.464,6.107Zm-9.827,0a1.205,1.205,0,1,1,0-2.411c.6,0,1.043.1,2.595,2.411H4.638Zm6.211,0H8.254C9.8,3.8,10.233,3.7,10.848,3.7a1.205,1.205,0,1,1,0,2.411Z" transform="translate(0 -2.25)" fill="#fff" opacity="0.6"/>
</svg>
