<svg xmlns="http://www.w3.org/2000/svg" width="30.8" height="26.4" viewBox="0 0 30.8 26.4">
  <g id="Group_17" data-name="Group 17" transform="translate(-0.852)">
    <g id="noun_Home_1560062" transform="translate(0.852 0)">
      <g id="Group_12" data-name="Group 12" transform="translate(0)">
        <path id="Path_3" data-name="Path 3" d="M24.4,969.362a1.264,1.264,0,0,0-.693.25l-14.273,12a1.5,1.5,0,0,0-.246,1.737,1.118,1.118,0,0,0,1.632.15L24.4,972.087,37.978,983.5a1.106,1.106,0,0,0,1.632-.15,1.426,1.426,0,0,0-.246-1.737l-14.273-12a1.1,1.1,0,0,0-.693-.25Zm-9.015,11.712-2.254,1.9v11.588a1.165,1.165,0,0,0,1.127,1.2h7.137a1.165,1.165,0,0,0,1.127-1.2v-4.8a1.882,1.882,0,1,1,3.756,0v4.8a1.165,1.165,0,0,0,1.127,1.2h7.137a1.165,1.165,0,0,0,1.127-1.2V982.974l-2.254-1.9v12.287H28.529v-3.6a4.289,4.289,0,0,0-4.132-4.4,4.289,4.289,0,0,0-4.132,4.4v3.6H15.383Z" transform="translate(-9 -969.362)" fill="purple"/>
      </g>
    </g>
  </g>
</svg>
