<svg xmlns="http://www.w3.org/2000/svg" width="18.855" height="26.398" viewBox="0 0 18.855 26.398">
  <g id="Group_60" data-name="Group 60" transform="translate(-33.514)">
    <g id="noun_Bell_1881834" transform="translate(33.514 0)">
      <path id="Path_7" data-name="Path 7" d="M11.908,4.188a2.828,2.828,0,1,0-4.961,0,7.545,7.545,0,0,0-5.062,7.125V16.97c0,.053,0,.106.006.159a2.829,2.829,0,0,0,.936,5.5H5.657a3.771,3.771,0,0,0,7.542,0h2.828a2.829,2.829,0,0,0,.936-5.5c0-.052.006-.105.006-.159V11.313A7.545,7.545,0,0,0,11.908,4.188ZM10.37,2.828a.943.943,0,1,0-.943.943A.943.943,0,0,0,10.37,2.828Zm4.714,8.485a5.657,5.657,0,1,0-11.313,0v7.542H2.828a.943.943,0,0,0,0,1.886h13.2a.943.943,0,1,0,0-1.886h-.943ZM11.313,22.626H7.542a1.886,1.886,0,0,0,3.771,0Z" transform="translate(0 0)" fill="#434b56" fill-rule="evenodd"/>
    </g>
  </g>
</svg>
