<svg xmlns="http://www.w3.org/2000/svg" width="18.896" height="18.93" viewBox="0 0 18.896 18.93">
  <path id="iconfinder_phone-call_2561306" d="M13.163,4.417a4.271,4.271,0,0,1,3.374,3.374M13.163,1a7.688,7.688,0,0,1,6.791,6.782M19.1,14.6v2.563a1.708,1.708,0,0,1-1.862,1.708,16.9,16.9,0,0,1-7.372-2.622,16.656,16.656,0,0,1-5.125-5.125A16.9,16.9,0,0,1,2.119,3.716a1.708,1.708,0,0,1,1.7-1.862H6.381A1.708,1.708,0,0,1,8.09,3.323a10.968,10.968,0,0,0,.6,2.4,1.708,1.708,0,0,1-.384,1.8L7.218,8.611a13.667,13.667,0,0,0,5.125,5.125l1.085-1.085a1.708,1.708,0,0,1,1.8-.384,10.968,10.968,0,0,0,2.4.6A1.708,1.708,0,0,1,19.1,14.6Z" transform="translate(-1.611 -0.448)" fill="none" stroke="#fff" stroke-linecap="round" stroke-linejoin="round" stroke-width="1"/>
</svg>
