<svg xmlns="http://www.w3.org/2000/svg" width="23.625" height="27" viewBox="0 0 23.625 27">
  <path id="Icon_awesome-shopping-bag" data-name="Icon awesome-shopping-bag" d="M18.563,8.438V6.75a6.75,6.75,0,0,0-13.5,0V8.438H0V22.781A4.219,4.219,0,0,0,4.219,27H19.406a4.219,4.219,0,0,0,4.219-4.219V8.438ZM8.438,6.75a3.375,3.375,0,0,1,6.75,0V8.438H8.438Zm8.438,6.328a1.266,1.266,0,1,1,1.266-1.266A1.266,1.266,0,0,1,16.875,13.078Zm-10.125,0a1.266,1.266,0,1,1,1.266-1.266A1.266,1.266,0,0,1,6.75,13.078Z" fill="purple"/>
</svg>
